<svg xmlns="http://www.w3.org/2000/svg" viewBox="0 0 635.98 665.47"><defs><style>.cls-1{fill:#37c3ca;}</style></defs><title>Standard Full Transparent Rev</title><g id="Layer_2" data-name="Layer 2"><g id="Layer_1-2" data-name="Layer 1"><path class="cls-1" d="M418.22,261.46h0a28.45,28.45,0,0,0-18.55-6.9c-.81,0-1.62,0-2.43.1a28.31,28.31,0,0,0-19.54,10.19L278.36,396.94a28.63,28.63,0,0,0,3.37,39.81,28.51,28.51,0,0,0,40.53-3.39l99.33-132.09A28.64,28.64,0,0,0,418.22,261.46Z"/><path class="cls-1" d="M484.56,363.91a28.62,28.62,0,0,0-3.38-39.81L481,324a28.15,28.15,0,0,0-18.39-6.77c-.81,0-1.62,0-2.43.1a28.31,28.31,0,0,0-19.54,10.17l-47.12,69.47a28.62,28.62,0,0,0,3.38,39.81,28.5,28.5,0,0,0,40.5-3.37Z"/><path class="cls-1" d="M529.06,105.71a111.54,111.54,0,0,0-2.64-19.24,111,111,0,0,0-219.16,29.92A111.57,111.57,0,0,0,326,173l1,1.45-.28.34L206.81,334.24a14.41,14.41,0,0,1-24.76-4.62L135.91,206.45c-3.43-10.24-14.07-17.39-25.87-17.39a27.55,27.55,0,0,0-7.43,1,29.92,29.92,0,0,0-18,14.46,23.73,23.73,0,0,0-1.87,18.73l71.56,202c2.68,8.11,9.94,14,19.44,15.8,10,1.89,19.85-1.33,25.66-8.36l171-221.45L372,212a109.76,109.76,0,0,0,70.75,7.3A110.78,110.78,0,0,0,529.06,105.71ZM432.6,174.64a64.71,64.71,0,0,1-27.35.35l-3.82-.77L426,144.88a28.38,28.38,0,0,0-43.59-36.35L358.3,137.16l-1.36-3.78a64.87,64.87,0,0,1-2.38-7.89A66.93,66.93,0,0,1,353,114.15,65.22,65.22,0,0,1,481.75,96.61,66.86,66.86,0,0,1,483.31,108,65.07,65.07,0,0,1,432.6,174.64Z"/><circle class="cls-1" cx="525.06" cy="412.21" r="29.37"/><path class="cls-1" d="M185.69,645.95H150.74V626.3h27.79a8.66,8.66,0,0,0,0-17.31H150.74V591h33.77a8.65,8.65,0,0,0,8.65-8.66v-1.43a8.65,8.65,0,0,0-8.65-8.65H129.4v92.41h56.29a8.66,8.66,0,0,0,8.66-8.66V654.6A8.66,8.66,0,0,0,185.69,645.95Z"/><path class="cls-1" d="M301.07,645.95H266.12V626.3h27.79a8.66,8.66,0,0,0,0-17.31H266.12V591H299.9a8.66,8.66,0,0,0,8.66-8.66v-1.43a8.66,8.66,0,0,0-8.66-8.65H244.78v92.41h56.29a8.66,8.66,0,0,0,8.66-8.66V654.6A8.66,8.66,0,0,0,301.07,645.95Z"/><path class="cls-1" d="M422.48,582.18A31.21,31.21,0,0,0,413,575a27.11,27.11,0,0,0-12.17-2.73H361.38V654a10.67,10.67,0,0,0,21.34,0V634.89h18.74a27.78,27.78,0,0,0,12.1-2.6,28.22,28.22,0,0,0,9.31-7,33.43,33.43,0,0,0,6-10A32.41,32.41,0,0,0,431,603.52a29.86,29.86,0,0,0-2.28-11.32A34.24,34.24,0,0,0,422.48,582.18ZM406.67,613a8.25,8.25,0,0,1-6.51,3.25H382.72V591h16.66a9.91,9.91,0,0,1,3.64.72,8.74,8.74,0,0,1,3.25,2.28,11.49,11.49,0,0,1,2.28,3.9,16.54,16.54,0,0,1,.85,5.6Q409.4,609.77,406.67,613Z"/><path class="cls-1" d="M487.82,572.29A10.7,10.7,0,0,0,477.1,583V654a10.72,10.72,0,0,0,21.43,0V583A10.69,10.69,0,0,0,487.82,572.29Z"/><path class="cls-1" d="M632.73,601.57a48.15,48.15,0,0,0-9.24-15.1A45.69,45.69,0,0,0,609,575.8a43,43,0,0,0-18.74-4,44.19,44.19,0,0,0-18.48,3.84,46.58,46.58,0,0,0-24.27,25.18,46.11,46.11,0,0,0-3.45,17.57,47.35,47.35,0,0,0,3.32,17.44,48.28,48.28,0,0,0,9.31,15,46.13,46.13,0,0,0,14.45,10.61,43,43,0,0,0,18.74,4,43.57,43.57,0,0,0,18.48-3.9,46.76,46.76,0,0,0,24.14-25.25A46.12,46.12,0,0,0,636,618.75,47.53,47.53,0,0,0,632.73,601.57Zm-20,27a28.17,28.17,0,0,1-4.49,9,23.12,23.12,0,0,1-7.55,6.44A22,22,0,0,1,590,646.47a22.46,22.46,0,0,1-10.41-2.34,22.73,22.73,0,0,1-7.61-6.25A27.65,27.65,0,0,1,567.4,629a34.56,34.56,0,0,1-1.56-10.35,35.48,35.48,0,0,1,1.5-10.22,26.64,26.64,0,0,1,4.56-8.91,23.68,23.68,0,0,1,7.55-6.31A22.13,22.13,0,0,1,590,590.77,22.57,22.57,0,0,1,600.39,593a23.28,23.28,0,0,1,7.61,6.12,26.26,26.26,0,0,1,4.68,8.85,34.56,34.56,0,0,1,1.56,10.35A35.57,35.57,0,0,1,612.75,628.58Z"/><path class="cls-1" d="M71.31,568.73a10.76,10.76,0,0,0-10.23,7.41L41.21,636.85,21.09,576.11a10.76,10.76,0,0,0-10.21-7.38h-.1a10.76,10.76,0,0,0-10,14.61L28.56,656a13.53,13.53,0,0,0,25.29,0L81.37,583.3A10.76,10.76,0,0,0,71.31,568.73Z"/></g></g></svg>